<svg class="custom-icon" xmlns="http://www.w3.org/2000/svg" viewBox="0 0 100 100" style="height:100px;width:100px"><path class="inner-shape" d="M17.378 49.398c-.354 0-.637.28-.66.655l-.814 10.052.815 10.57c.022.372.304.654.658.654.35 0 .63-.283.658-.654l.925-10.57-.924-10.057c-.026-.373-.308-.652-.658-.652zm7.92-10.207c-.443 0-.806.364-.826.827l-.716 20.094.718 10.505c.02.46.38.822.825.822.44 0 .803-.363.825-.827l.81-10.5-.81-20.093c-.024-.465-.385-.826-.826-.826zm-11.833 9.507c-.304 0-.552.246-.577.572l-.864 10.836.864 10.484c.024.324.272.57.577.57.3 0 .548-.246.575-.57l.982-10.484-.982-10.84c-.028-.324-.275-.57-.575-.57zm7.856-5.685c-.394 0-.72.327-.74.743l-.766 16.354.767 10.568c.02.413.346.74.74.74.395 0 .72-.328.744-.742v.003l.868-10.57-.87-16.355c-.02-.416-.348-.743-.74-.743zm-11.737 6.06c-.258 0-.464.203-.49.484l-.916 10.547.915 10.16c.026.283.232.487.49.487.256 0 .463-.203.492-.484l1.04-10.163-1.04-10.547c-.03-.283-.236-.485-.49-.485zm-3.85 1.74c-.208 0-.38.17-.41.4l-.962 8.89.964 8.69c.028.233.2.402.41.402.204 0 .372-.164.406-.4l1.096-8.693-1.095-8.888c-.033-.236-.2-.4-.407-.4zM2.11 54.217c-.205 0-.367.16-.394.388L1 60.1l.717 5.404c.027.23.188.388.394.388.2 0 .36-.158.393-.386l.85-5.405-.85-5.498c-.032-.227-.195-.386-.393-.386zM49.767 31.36c-.724 0-1.32.6-1.33 1.338l-.543 27.426.545 9.954c.008.727.603 1.326 1.327 1.326.723 0 1.316-.6 1.326-1.337v.012l.592-9.956-.592-27.428c-.01-.735-.603-1.336-1.326-1.336zm37.18 15.78c-1.65 0-3.228.34-4.662.946-.96-10.973-10.07-19.58-21.182-19.58-2.72 0-5.37.54-7.71 1.455-.91.357-1.15.724-1.16 1.432v38.64c.01.745.58 1.366 1.302 1.44.03.002 33.196.02 33.41.02 6.658 0 12.055-5.45 12.055-12.176 0-6.723-5.395-12.175-12.052-12.175zM45.654 33.723c-.677 0-1.235.56-1.244 1.252l-.47 25.136.47 10.11c.01.683.57 1.244 1.243 1.244.674 0 1.23-.562 1.242-1.252l.525-10.092-.525-25.147c-.01-.688-.568-1.25-1.242-1.25zm-16.346 3.71c-.494 0-.894.4-.91.91l-.668 21.77.667 10.395c.016.508.414.907.91.907.49 0 .89-.4.908-.91l.752-10.39-.75-21.774c-.02-.51-.42-.91-.91-.91zm4.04-.822c-.542 0-.98.437-.993.998l-.618 22.506.62 10.33c.013.556.45.993.99.993s.973-.437.992-.994v-.002l.696-10.324-.696-22.508c-.017-.56-.454-.998-.992-.998zm8.17 1.21c-.636 0-1.147.513-1.16 1.168l-.518 21.13.517 10.17c.013.645.523 1.158 1.16 1.158.638 0 1.145-.51 1.16-1.166v.008l.583-10.168-.58-21.134c-.018-.654-.525-1.166-1.162-1.166zm-4.1-.716c-.59 0-1.066.475-1.078 1.08l-.57 21.934.57 10.23c.013.6.487 1.077 1.077 1.077.586 0 1.06-.476 1.076-1.083v.01l.638-10.236-.638-21.93c-.016-.608-.49-1.082-1.076-1.082z" fill="#FFF"/></svg>