<svg xmlns="http://www.w3.org/2000/svg" viewBox="0 0 620.1 600"><g fill="#A87C4F"><path d="M152.1 270.5c-2.4-5.5-8.8-8-14.3-5.6l-6.3 2.7-21.9-150.8 23.5 2h.9c5.6 0 10.3-4.3 10.8-9.9.5-6-3.9-11.2-9.9-11.7l-28.5-2.4-2.4-16.5c5.9 1.2 11.6 2.4 17.3 3.5 27.2 5.6 49.7 10.3 73.1 9.6l4 41.7 52.1-12.8c5.8-1.4 9.4-7.3 7.9-13.1-1.4-5.8-7.3-9.4-13.1-7.9l-27.7 6.8-1.6-16.8c6.7-1.2 13.6-2.8 20.8-5.1 5.7-1.8 8.9-7.9 7.1-13.6-1.8-5.7-7.9-8.9-13.6-7.1-5.7 1.8-11.1 3.1-16.5 4.1l-1-11.6 31.8-5.3c5.9-1 9.9-6.6 8.9-12.5s-6.6-9.9-12.5-8.9l-51.7 8.6 3 31.9c-20.5.4-40.8-3.8-66.6-9.1-11.8-2.4-25.1-5.2-39.7-7.7-12.9-2.2-29.1-5-44.1-4C16.4 50.7 6.3 63.4 2.4 73.7c-5.4 14-1.5 33.9 11.4 59.2 9.2 17.9 22.8 37.7 34.6 50.4 7.1 7.6 13.4 12.7 19.9 12.7 1.3 0 2.5-.2 3.8-.6 3.5-1.1 8.3-4 11-12 5.1-14.9 2-43.8-10.5-61.6-3.4-4.9-10.2-6.1-15.1-2.6-4.9 3.4-6.1 10.2-2.6 15.1 4.2 5.9 7.2 15 8.4 24.8.4 3.3.5 6.3.4 8.7-6.5-7.1-15.9-19.2-24.8-34.4-16.2-27.6-19.1-45-16.3-52.2 5.8-15.1 33.9-11.6 59.7-7.1.3.1.7.1 1 .2-.8 1.8-1.1 3.8-.8 5.9L84.3 93l-3-.2c-6-.5-11.2 3.9-11.7 9.9s3.9 11.2 9.9 11.7l8 .7L111 276.7l-17 7.4c-5.5 2.4-8 8.8-5.6 14.3 1.8 4.1 5.8 6.5 9.9 6.5 1.5 0 2.9-.3 4.3-.9l43.8-19.2c5.6-2.4 8.1-8.8 5.7-14.3zM600.3 101.6l-15.3 2.8-6.5 9.6 2.7-10.5-21.4 4.6-9.5 15.6 4.5-12.4-19.2 5.6-12 16.9 65.6-13.3M620.1 165.4l-22.7-22.6-64.7 11.8 17.9 9.4 14.2 1.1-3.4-6.6 9.9 6.1 20.1 1.4-6-9.8 13.7 10.2M171.4 446.1c-3.9-4.6-10.7-5.2-15.3-1.3l-11.6 9.7-9.9-89.1 49.7 82.5c2.7 4.4 8.1 6.3 12.9 4.6 4.9-1.7 7.8-6.6 7.1-11.7l-21.6-154.6c-.8-5.9-6.3-10.1-12.2-9.2-5.9.8-10.1 6.3-9.2 12.2l14.3 102.2-47.9-79.5c-2.6-4.4-7.9-6.3-12.8-4.7-4.8 1.6-7.9 6.4-7.3 11.5l17.6 158.4c.4 4 3 7.4 6.7 8.9 1.3.5 2.7.8 4 .8 2.5 0 5-.9 7-2.5l27.1-22.8c4.6-4 5.2-10.8 1.4-15.4zM205.3 246.8c-2.2-5.5-8.6-8.2-14.1-6l-14.1 5.7-13.5-118.8c-.7-5.9-6-10.2-12-9.6-5.9.7-10.2 6-9.6 12l15.1 133c.4 3.4 2.3 6.4 5.2 8.1 1.7 1 3.6 1.5 5.5 1.5 1.4 0 2.8-.3 4.1-.8l27.3-11.1c5.7-2.1 8.4-8.4 6.1-14zM200.3 291.9L216.4 435c.4 3.1 2.1 6 4.7 7.7 1.8 1.2 4 1.9 6.1 1.9.9 0 1.9-.1 2.8-.4l45.2-12c5.1-1.3 8.5-6.2 8-11.4l-7.3-85.3c-.5-6-5.8-10.4-11.7-9.9-6 .5-10.4 5.8-9.9 11.7l6.6 76.3-24.3 6.4-11-97.8 35.1-11.1c5.7-1.8 8.9-7.9 7.1-13.6-1.8-5.7-7.9-8.9-13.6-7.1l-31 9.8-1.6-14.3 47.4-14.4c5.7-1.7 9-7.8 7.2-13.5-1.7-5.7-7.8-9-13.5-7.2l-65.3 19.9c-5.7 1.7-9 7.8-7.2 13.5 1.2 4.7 5.5 7.7 10.1 7.7zM321.9 104.9l-45.7 18.5c-4.4 1.8-7.1 6.2-6.7 10.9l8.1 103c.4 5.3 4.7 9.6 10 10l46.9 3.5h.8c2.8 0 5.6-1.1 7.6-3.1 2.2-2.2 3.4-5.2 3.2-8.3l-1.7-31.2c-.3-6-5.5-10.6-11.4-10.2-6 .3-10.6 5.4-10.2 11.4l1.1 18.9-25.3-1.9-6.7-85.8 24.2-9.8 1 19.5c.3 6 5.4 10.6 11.4 10.3 6-.3 10.6-5.4 10.3-11.4l-1.7-34.7c-.2-3.5-2-6.7-5-8.6-3.2-2-6.9-2.3-10.2-1z"/><path d="M347.9 171.2c-4.9.9-8.5 1.6-10.5 2l3-8.7-37.9 24.2 41.5 7.1-5-8.2c3.3-.6 6.6-1.3 10.1-1.9l4.3 54c.5 5.7 5.2 10 10.8 10h.9c6-.5 10.4-5.7 9.9-11.7l-4.5-56.3c9.7-1.8 19.7-3.8 29.9-5.7l1.5 69.5c.1 5.9 5 10.6 10.8 10.6h.2c6-.1 10.7-5.1 10.6-11.1l-1.6-73.1 10.8-2.1.9 73.2c.1 5.9 4.9 10.7 10.8 10.7h.1c6-.1 10.8-5 10.7-11l-1-77.1c8.7-1.7 17.3-3.3 25.8-4.9l37.5 87.2-39-9.2c-5.8-1.4-11.7 2.2-13 8.1-1.4 5.8 2.2 11.7 8.1 13l59.9 14.1c.8.2 1.7.3 2.5.3 3.2 0 6.2-1.4 8.3-3.9 2.6-3.1 3.3-7.5 1.7-11.3l-44.1-102.6c50.3-9.5 89.8-17 94.5-17.5l-4.2-13.8s-6.9 1.6-47.6 9c-13 2.4-29.2 5.4-48.4 8.9L451.9 40c-2-4.8-7.2-7.4-12.2-6.3-5.1 1.1-8.6 5.6-8.6 10.7l1.4 110.5c-3.7.7-7.3 1.4-11 2.1l-2.6-118.6L372.4 72c-4.9 3.5-6 10.2-2.5 15.1s10.2 6 15.1 2.5l13.4-9.5 1.8 81.2c-11.3 2.1-21.7 4.1-30.8 5.8l-10-125.3c-.5-6-5.7-10.4-11.7-9.9-6 .5-10.4 5.7-9.9 11.7l10.1 127.6zm105.8-72.4l20.9 48.6c-4.9.9-10 1.9-15.2 2.8-1.7.3-3.3.6-5 .9l-.7-52.3zM433.7 345.8c5-1.4 8.7-5.2 9.9-10.2 1.5-6.6-1.2-13.7-9.6-24.8-4.9-6.4-11.8-14.3-20.6-23.4-14.7-15.3-29.5-28.8-30.1-29.4-3.3-3-8.1-3.7-12.1-1.7-4 1.9-6.4 6.1-6.1 10.6L377 424.8c.4 5.7 5.2 10 10.8 10h.8c6-.5 10.4-5.7 10-11.6l-6-79c4.5 1 9.7 1.9 15.1 2.6l20.6 99.8c-13.9-2.1-35.8-4.9-62.1-6.1l-13.9-174.6c-.5-6-5.7-10.4-11.7-9.9-6 .5-10.4 5.7-9.9 11.7l.4 5.4c-7.3-4.7-15.6-8.3-23.2-7.5-6.1.7-11.3 4.1-14.5 9.5-7.5 12.7-6 52.9-4.5 75.7 1.1 16.1 2.9 31.7 5 43.9 3.5 20.3 7 26.7 9.7 29.9 4 4.9 9.6 7.4 15.9 7.4 3 0 6.2-.6 9.5-1.8 5-1.8 9.9-4.8 14-7.9l1.4 17.4c-61-.8-112.6 8.1-153.7 26.5-22 9.8-47.8 27-45.7 53.2 1.2 15.5 12.1 30.1 32.2 43.3 18.1 11.9 44 22.6 74.7 30.9 14.9 4 28.5 6 40.8 6 19.9 0 36.3-5.3 49-15.9 15.1-12.7 24.3-32.6 27.4-59.2 1.2-10 1.4-20 1.1-29 20.1 2.6 33 6 33.3 6.1 5.8 1.6 11.7-1.8 13.3-7.6 1.6-5.8-1.8-11.7-7.6-13.3-1.4-.4-16.9-4.5-40.3-7.3-.1-1-.2-2-.3-2.9-.3-3.3-.5-6.2-.6-8.1v-.1c41.6 2.2 71.7 8.3 72 8.3l16.1 3.3-26.2-127c1.4-.5 2.6-.8 3.8-1.1zm-93.2 49.3c-1.3 1.6-5.1 5.7-9.8 9.4-5.3 4.1-8.9 5.4-10.4 5.7-2.7-5.4-7.2-26.9-9.5-61.4-2.3-33.6-.8-55.3 1.1-61.6 4.6 1.2 14.3 8.1 21.8 15.7l7.3 91.4c-.2.2-.4.5-.5.8zM238.1 495.3c1.4 4.7 5.7 7.7 10.4 7.7 1 0 2.1-.1 3.1-.5 34.1-10.2 69.1-11.2 96.9-9.3.9 24.7-1.4 57.6-20.7 73.7-14.6 12.3-38.2 14.1-70.1 5.5-28.5-7.7-52.2-17.4-68.4-28.1-13.9-9.1-21.9-18.7-22.5-26.9-.8-10.6 10.9-21.8 33-31.7 25.8-11.5 70.2-24.6 138.3-24.6 2.7 0 5.5 0 8.3.1l.2 2c.1 2.2.3 4.8.6 7.9-29.3-1.7-65.6-.3-101.6 10.5-5.9 1.9-9.2 7.9-7.5 13.7zm153-173.9l-2.1-28c2 2 4.1 4.1 6.2 6.3 12.4 12.8 19.2 21 22.9 26h-.1c-.4 0-.8-.1-1.3-.1-8.1-.3-17.9-2.2-25.6-4.2zM247.8 129.3l-60.2 13.9c-5.8 1.3-9.5 7.2-8.1 13 1.2 5 5.6 8.4 10.6 8.4.8 0 1.6-.1 2.4-.3l7.8-1.8 9.6 82.2c.4 3.1 2.1 6 4.7 7.7 1.8 1.2 3.9 1.9 6.1 1.9 1 0 1.9-.1 2.9-.4l38.2-10.4c5.1-1.4 8.4-6.2 7.9-11.4l-2.9-33c-.5-6-5.8-10.4-11.7-9.9-6 .5-10.4 5.8-9.9 11.7l2.1 24-17.3 4.7-5-42.4 17.2-4c5.8-1.4 9.4-7.2 8.1-13-1.4-5.8-7.2-9.4-13-8.1l-14.8 3.5-.9-8 31.1-7.2c5.8-1.3 9.5-7.2 8.1-13-1.4-5.8-7.2-9.5-13-8.1zM549.1 332.4c-.6-.1-6.3-1.6-14.8-3.8l6.5-30.2c1.2-5.8-2.3-11.5-8.1-12.8l-104.1-24.9c-5.8-1.4-11.7 2.2-13.1 8-1.4 5.8 2.2 11.7 8 13.1l93.8 22.4-4.1 19c-17.2-4.5-37-9.6-50.9-13.2-3.5-.9-7.1 0-9.8 2.3-2.7 2.3-4.1 5.8-3.7 9.4L460.4 427c.5 4.6 3.9 8.4 8.4 9.4l29.6 6.6c.8.2 1.6.3 2.4.3 2 0 4.1-.6 5.8-1.7 2.4-1.6 4.1-4 4.8-6.8l18.3-84.8c8 2.1 13.5 3.5 14.1 3.7 5.8 1.5 11.7-2.1 13.1-7.9 1.5-6.1-2-12-7.8-13.4zm-56.6 86.9l-11.4-2.5-9-82c10.1 2.6 23.8 6.2 36.6 9.5l-16.2 75zM538.3 467.1c-1-.3-24.5-8.7-62.9-17.4-5.8-1.3-11.6 2.3-13 8.2-1.3 5.8 2.3 11.6 8.2 13 37 8.4 60.3 16.6 60.5 16.7 1.2.4 2.4.6 3.6.6 4.5 0 8.6-2.8 10.2-7.2 2-5.7-1-11.9-6.6-13.9z"/><path d="M322.9 94.2c5.5-2.4 7.9-8.8 5.5-14.3-2.4-5.5-8.8-7.9-14.3-5.5l-26 11.5-3.3-75.5c-.3-6-5.3-10.6-11.3-10.3-6 .3-10.6 5.3-10.3 11.3l4.8 107.3 54.9-24.5zM105 48.7c1 .2 2 .5 3 .7 2.1.5 4.3 1 6.6 1.5s4.7 1.1 7.1 1.5c2.4.4 4.9.9 7.4 1.3 1.2.2 2.5.5 3.7.7 1.2.2 2.5.4 3.7.5 2.5.4 4.9.7 7.2 1.1 2.4.3 4.6.6 6.8.8 2.2.2 4.2.5 6.1.7 1.9.2 3.7.3 5.2.5 1.6.1 2.9.2 4.1.3 1.1.1 2 .1 2.7.1h1.1c1 0 2-.1 2.9-.3 5.9-1.4 9.5-7.3 8.1-13.2-1.4-5.9-7.3-9.5-13.2-8.1 0 0-.3.1-.8.2s-1.3.3-2.3.5c-1 .2-2.2.5-3.7.8-1.4.3-3.1.6-4.9.9-1.8.4-3.7.6-5.8 1-2.1.3-4.2.7-6.5 1-2.3.3-4.6.6-7 .9-1.2.2-2.4.3-3.6.5l-3.6.3c-2.4.2-4.9.5-7.3.7-2.4.3-4.8.3-7 .5-2.3.1-4.5.2-6.6.4-1.1.1-2.1.1-3.1.2-3.5.1-3.8 3.6-.3 4z"/></g></svg>